<svg width="2438" height="1200" viewBox="0 0 2438 1200" fill="none" xmlns="http://www.w3.org/2000/svg">
<g clip-path="url(#clip0_1_21)">
<rect width="1200" height="2474" transform="translate(2438 0.000108142) rotate(90)" fill="#F5F5F5"/>
<g clip-path="url(#clip1_1_21)">
<path d="M1756.38 434.459C1736.07 411.469 1714.07 390.032 1690.56 370.332" stroke="black" stroke-width="0.288" stroke-miterlimit="10" stroke-linecap="round" stroke-linejoin="round"/>
<path d="M1039.53 257.76C957.071 291.204 881.961 340.477 818.437 402.796" stroke="black" stroke-width="0.288" stroke-miterlimit="10" stroke-linecap="round" stroke-linejoin="round"/>
<path d="M1260.99 157.771C1191.49 158.398 1122.49 169.486 1056.3 190.665" stroke="black" stroke-width="0.288" stroke-miterlimit="10" stroke-linecap="round" stroke-linejoin="round"/>
<path d="M1260.98 157.155C1191.43 157.783 1122.36 168.884 1056.11 190.078" stroke="black" stroke-width="0.288" stroke-miterlimit="10" stroke-linecap="round" stroke-linejoin="round"/>
<path d="M970.601 209.956L1200.63 94.7235" stroke="black" stroke-width="0.288" stroke-miterlimit="10" stroke-linecap="round" stroke-linejoin="round"/>
<path d="M970.919 210.485L1201.03 95.1334" stroke="black" stroke-width="0.288" stroke-miterlimit="10" stroke-linecap="round" stroke-linejoin="round"/>
<path d="M1039.09 116.266C1001.51 137.807 964.476 160.292 928.032 183.698" stroke="black" stroke-width="0.361323" stroke-miterlimit="10" stroke-linecap="round" stroke-linejoin="round"/>
<path d="M929.34 179.577L1069.49 91.4444" stroke="black" stroke-width="0.361323" stroke-miterlimit="10" stroke-linecap="round" stroke-linejoin="round"/>
<path d="M1049 105.792L1070.31 92.6739" stroke="black" stroke-width="0.361323" stroke-miterlimit="10" stroke-linecap="round" stroke-linejoin="round"/>
<path d="M1049.02 105.818C1046.79 106.956 1045.01 108.838 1044 111.144" stroke="black" stroke-width="0.361323" stroke-miterlimit="10" stroke-linecap="round" stroke-linejoin="round"/>
<path d="M1039.09 116.266C1041.22 115.114 1042.94 113.322 1044.01 111.143" stroke="black" stroke-width="0.361323" stroke-miterlimit="10" stroke-linecap="round" stroke-linejoin="round"/>
<path d="M904.752 151.293L1091.6 22.3341" stroke="black" stroke-width="0.288" stroke-miterlimit="10" stroke-linecap="round" stroke-linejoin="round"/>
<path d="M904.342 150.472L1089.3 23.0421" stroke="black" stroke-width="0.288" stroke-miterlimit="10" stroke-linecap="round" stroke-linejoin="round"/>
<path d="M1216.75 206.635C1138.33 212.713 1061.73 233.369 990.877 267.539" stroke="black" stroke-width="0.288" stroke-miterlimit="10" stroke-linecap="round" stroke-linejoin="round"/>
<path d="M1216.79 207.246C1138.45 213.322 1061.92 233.961 991.144 268.094" stroke="black" stroke-width="0.288" stroke-miterlimit="10" stroke-linecap="round" stroke-linejoin="round"/>
<path d="M1193.68 219.015C1152.9 223.482 1112.76 232.533 1074.02 246.006" stroke="black" stroke-width="0.288" stroke-miterlimit="10" stroke-linecap="round" stroke-linejoin="round"/>
<path d="M732.639 584.575L741.655 569.817" stroke="black" stroke-width="0.288" stroke-miterlimit="10" stroke-linecap="round" stroke-linejoin="round"/>
<path d="M805.582 267.299L438.406 573.506" stroke="black" stroke-width="0.288" stroke-miterlimit="10" stroke-linecap="round" stroke-linejoin="round"/>
<path d="M805.991 267.71L438.815 573.917" stroke="black" stroke-width="0.361323" stroke-miterlimit="10" stroke-linecap="round" stroke-linejoin="round"/>
<path d="M756.481 458.054C734.275 485.803 715.214 515.922 699.643 547.872" stroke="black" stroke-width="0.288" stroke-miterlimit="10" stroke-linecap="round" stroke-linejoin="round"/>
<path d="M756.961 458.44C734.782 486.15 715.744 516.234 700.194 548.139" stroke="black" stroke-width="0.288" stroke-miterlimit="10" stroke-linecap="round" stroke-linejoin="round"/>
<path d="M787.55 332.886L830.169 299.274" stroke="black" stroke-width="0.288" stroke-miterlimit="10" stroke-linecap="round" stroke-linejoin="round"/>
<path d="M699.749 547.978C678.617 593.806 674.326 645.656 687.634 694.34" stroke="black" stroke-width="0.288" stroke-miterlimit="10" stroke-linecap="round" stroke-linejoin="round"/>
<path d="M700.307 548.236C679.239 593.934 674.958 645.635 688.224 694.179" stroke="black" stroke-width="0.288" stroke-miterlimit="10" stroke-linecap="round" stroke-linejoin="round"/>
<path d="M710.581 552.975C694.431 588.001 688.618 626.93 693.829 665.145" stroke="black" stroke-width="0.288" stroke-miterlimit="10" stroke-linecap="round" stroke-linejoin="round"/>
<path d="M627.322 470.208L546.592 550.962" stroke="black" stroke-width="0.288" stroke-miterlimit="10" stroke-linecap="round" stroke-linejoin="round"/>
<path d="M506.964 662.07C492.047 658.003 478.468 650.043 467.626 639.013L480.74 615.239M546.716 550.882L499.179 588.592M473.772 601.711L499.179 588.593M480.74 615.238L473.771 601.711" stroke="black" stroke-width="0.288" stroke-miterlimit="10" stroke-linecap="round" stroke-linejoin="round"/>
<path d="M506.967 662.07C523.23 665.925 539.811 668.289 556.502 669.142L599.942 670.782" stroke="black" stroke-width="0.288" stroke-miterlimit="10" stroke-linecap="round" stroke-linejoin="round"/>
<path d="M626.932 586.442L601.116 668.833C599.797 674.084 595.953 678.347 590.873 680.209H588.107C553.341 680.466 518.738 675.492 485.453 665.451M746.566 392.325C692.654 447.292 651.568 513.52 626.252 586.241M747.004 392.754C693.156 447.659 652.117 513.808 626.832 586.439M463.63 652.949C455.584 643.238 453.351 629.911 457.791 618.106C459.853 610.55 463.826 603.646 469.329 598.066L787.551 332.886M458.366 618.324C454.006 629.925 456.201 643.018 464.104 652.559M458.383 618.27C460.417 610.808 464.337 604 469.766 598.499L788.053 333.225M464.035 652.486C470.343 658.012 477.691 662.222 485.646 664.868M463.631 652.95C470.002 658.527 477.42 662.778 485.453 665.449M485.63 664.866C518.857 674.885 553.401 679.846 588.103 679.595M588.032 679.596L590.66 679.631C595.551 677.844 599.248 673.736 600.521 668.686L625.927 586.293" stroke="black" stroke-width="0.288" stroke-miterlimit="10" stroke-linecap="round" stroke-linejoin="round"/>
<path d="M784.272 339.034L627.32 470.207" stroke="black" stroke-width="0.288" stroke-miterlimit="10" stroke-linecap="round" stroke-linejoin="round"/>
<path d="M735.508 613.269L765.012 632.535" stroke="black" stroke-width="0.288" stroke-miterlimit="10" stroke-linecap="round" stroke-linejoin="round"/>
<path d="M732.56 584.595C726.907 593.639 728.179 605.466 735.62 613.1" stroke="black" stroke-width="0.288" stroke-miterlimit="10" stroke-linecap="round" stroke-linejoin="round"/>
<path d="M749.379 587.464C745.059 593.412 746.147 601.807 751.84 606.454" stroke="black" stroke-width="0.288" stroke-miterlimit="10" stroke-linecap="round" stroke-linejoin="round"/>
<path d="M761.733 256.642L363.004 589.085" stroke="black" stroke-width="0.288" stroke-miterlimit="10" stroke-linecap="round" stroke-linejoin="round"/>
<path d="M970.920 210.485C920.974 234.894 873.933 264.841 830.683 299.773" stroke="black" stroke-width="0.288" stroke-miterlimit="10" stroke-linecap="round" stroke-linejoin="round"/>
<path d="M970.651 209.931C920.663 234.359 873.580 264.335 830.295 299.292" stroke="black" stroke-width="0.288" stroke-miterlimit="10" stroke-linecap="round" stroke-linejoin="round"/>
<path d="M990.882 267.569C900.756 314.589 821.057 379.346 756.577 457.946" stroke="black" stroke-width="0.288" stroke-miterlimit="10" stroke-linecap="round" stroke-linejoin="round"/>
<path d="M991.170 268.114C901.114 315.091 821.479 379.802 757.053 458.335" stroke="black" stroke-width="0.288" stroke-miterlimit="10" stroke-linecap="round" stroke-linejoin="round"/>
<path d="M819.847 404.232C775.428 447.408 738.502 497.672 710.580 552.973" stroke="black" stroke-width="0.288" stroke-miterlimit="10" stroke-linecap="round" stroke-linejoin="round"/>
<path d="M1056.30 190.665C937.842 230.901 831.446 300.424 747.005 392.754" stroke="black" stroke-width="0.288" stroke-miterlimit="10" stroke-linecap="round" stroke-linejoin="round"/>
<path d="M1056.10 190.083C937.546 230.354 831.060 299.931 746.550 392.341" stroke="black" stroke-width="0.288" stroke-miterlimit="10" stroke-linecap="round" stroke-linejoin="round"/>
<path d="M928.033 183.698C886.388 210.364 845.654 238.421 805.896 267.824" stroke="black" stroke-width="0.361323" stroke-miterlimit="10" stroke-linecap="round" stroke-linejoin="round"/>
<path d="M929.467 179.393C886.732 206.664 845.356 236.018 805.504 267.349" stroke="black" stroke-width="0.361323" stroke-miterlimit="10" stroke-linecap="round" stroke-linejoin="round"/>
<path d="M1317.83 511.2L1237.51 509.56L1179.72 565.719L1178.5 646.062L1234.23 703.861L1314.55 705.091L1372.33 649.343L1373.97 568.998L1317.83 511.2Z" fill="white" stroke="black" stroke-width="0.724157" stroke-miterlimit="10" stroke-linecap="round" stroke-linejoin="round"/>
<path d="M1314.14 521.448L1242.01 519.808L1190.38 569.818L1188.74 641.553L1238.33 693.614L1310.04 694.843L1362.08 645.242L1363.72 573.508L1314.14 521.448Z" fill="white" stroke="black" stroke-width="0.724157" stroke-miterlimit="10" stroke-linecap="round" stroke-linejoin="round"/>
<path d="M1357.58 607.736C1357.58 563.100 1320.76 526.366 1276.03 526.366C1231.29 526.366 1194.48 563.100 1194.48 607.736C1194.48 652.370 1231.29 689.105 1276.03 689.105C1320.76 689.105 1357.58 652.370 1357.58 607.736Z" fill="white" stroke="black" stroke-width="0.724157" stroke-miterlimit="10" stroke-linecap="round" stroke-linejoin="round"/>
<path d="M1349.38 607.736C1349.38 567.595 1316.27 534.563 1276.03 534.563C1235.78 534.563 1202.67 567.595 1202.67 607.736C1202.67 647.876 1235.78 680.907 1276.03 680.907C1316.27 680.907 1349.38 647.876 1349.38 607.736Z" fill="white" stroke="black" stroke-width="0.517417" stroke-miterlimit="10" stroke-linecap="round" stroke-linejoin="round"/>
<path d="M1342.82 607.736C1342.82 570.970 1312.58 540.715 1275.82 540.715C1239.07 540.715 1208.82 570.970 1208.82 607.736C1208.82 644.500 1239.07 674.755 1275.82 674.755C1312.58 674.755 1342.82 644.500 1342.82 607.736Z" fill="white" stroke="black" stroke-width="0.517417" stroke-miterlimit="10" stroke-linecap="round" stroke-linejoin="round"/>
<path d="M1276.03 674.757V540.716" stroke="black" stroke-width="0.288" stroke-miterlimit="10" stroke-linecap="round" stroke-linejoin="round" stroke-dasharray="3.2 3.2"/>
<path d="M1194.48 607.530H1357.58" stroke="black" stroke-width="0.288" stroke-miterlimit="10" stroke-linecap="round" stroke-linejoin="round" stroke-dasharray="3.2 3.2"/>
<path d="M1333.40 550.142L1228.49 655.082" stroke="black" stroke-width="0.288" stroke-miterlimit="10" stroke-linecap="round" stroke-linejoin="round" stroke-dasharray="3.2 3.2"/>
<path d="M1323.56 655.082L1228.90 559.979" stroke="black" stroke-width="0.288" stroke-miterlimit="10" stroke-linecap="round" stroke-linejoin="round" stroke-dasharray="3.2 3.2"/>
<path d="M1276.03 706L1276 1130" stroke="black" stroke-width="0.288" stroke-miterlimit="10" stroke-dasharray="6 6"/>
<path d="M1644.84 574.434C1634.09 560.231 1622.55 546.653 1610.26 533.770" stroke="black" stroke-width="0.361323" stroke-miterlimit="10" stroke-linecap="round" stroke-linejoin="round"/>
<path d="M1645.96 575.503C1634.65 560.431 1622.43 546.063 1609.36 532.485" stroke="black" stroke-width="0.361323" stroke-miterlimit="10" stroke-linecap="round" stroke-linejoin="round"/>
<path d="M1571.43 497.173C1564.18 491.151 1556.75 485.346 1549.15 479.772" stroke="black" stroke-width="0.361323" stroke-miterlimit="10" stroke-linecap="round" stroke-linejoin="round"/>
<path d="M1591.29 515.021C1578.28 502.876 1564.57 491.481 1550.25 480.907" stroke="black" stroke-width="0.361323" stroke-miterlimit="10" stroke-linecap="round" stroke-linejoin="round"/>
<path d="M1680.08 625.567L1657.14 591.542" stroke="black" stroke-width="0.724157" stroke-miterlimit="10" stroke-linecap="round" stroke-linejoin="round"/>
<path d="M1680.5 625.567L1711.64 608.351" stroke="black" stroke-width="0.724157" stroke-miterlimit="10" stroke-linecap="round" stroke-linejoin="round"/>
<path d="M1654.62 587.866C1620.24 538.824 1576.68 496.897 1526.37 464.406" stroke="black" stroke-width="0.361323" stroke-miterlimit="10" stroke-linecap="round" stroke-linejoin="round"/>
<path d="M1526.37 464.404C1501.39 448.262 1474.91 434.561 1447.31 423.483" stroke="black" stroke-width="0.361323" stroke-miterlimit="10" stroke-linecap="round" stroke-linejoin="round"/>
<path d="M1237.73 391.582C1215.73 393.336 1193.88 396.651 1172.34 401.515" stroke="black" stroke-width="0.361323" stroke-miterlimit="10" stroke-linecap="round" stroke-linejoin="round"/>
<path d="M1172.34 401.515C1143.33 408.062 1115.01 417.382 1087.77 429.349" stroke="black" stroke-width="0.361323" stroke-miterlimit="10" stroke-linecap="round" stroke-linejoin="round"/>
<path d="M1019.09 466.929L1021.54 470.209" stroke="black" stroke-width="0.361323" stroke-miterlimit="10" stroke-linecap="round" stroke-linejoin="round"/>
<path d="M1021.54 470.208L1019.5 471.439" stroke="black" stroke-width="0.361323" stroke-miterlimit="10" stroke-linecap="round" stroke-linejoin="round"/>
<path d="M1071.26 436.706C1062.79 440.833 1054.46 445.214 1046.25 449.843" stroke="black" stroke-width="0.361323"/>
<path d="M1023.59 464.059L1019.09 466.927" stroke="black" stroke-width="0.361323"/>
<path d="M1685.41 369.776L1681.72 374.697" stroke="black" stroke-width="0.288"/>
<path d="M1690.91 370.713C1689.64 369.111 1687.36 368.683 1685.58 369.714" stroke="black" stroke-width="0.288"/>
<path d="M1720.24 412.41L1724.75 407.902" stroke="black" stroke-width="0.361323"/>
<path d="M1724.75 407.9L1715.74 398.882" stroke="black" stroke-width="0.361323"/>
<path d="M1715.74 398.883L1711.23 403.39" stroke="black" stroke-width="0.361323"/>
<path d="M1350.27 396.345C1338.47 394.394 1326.59 392.897 1314.68 391.859" stroke="black" stroke-width="0.361323"/>
<path d="M1712.87 402.162L1699.76 390.275" stroke="black" stroke-width="0.361323"/>
<path d="M1699.87 390.287C1676.57 368.940 1651.70 349.370 1625.48 331.740" stroke="black" stroke-width="0.361323"/>
<path d="M1672.30 366.500L1667.38 362.401" stroke="black" stroke-width="0.361323"/>
<path d="M1667.20 362.321C1645.49 344.988 1622.66 329.116 1598.86 314.808" stroke="black" stroke-width="0.361323"/>
<path d="M1391.49 405.105C1368.90 399.223 1345.91 395.051 1322.69 392.622" stroke="black" stroke-width="0.361323"/>
<path d="M1391.86 404.937C1368.73 398.894 1345.17 394.652 1321.39 392.238" stroke="black" stroke-width="0.361323"/>
<rect x="285" y="1120" width="1870" height="55" fill="none" stroke="black" stroke-width="0.288" opacity="0.5"/>
</g>
</g>
<defs>
<clipPath id="clip0_1_21">
<rect width="1200" height="2474" fill="white" transform="translate(2438 0.000108142) rotate(90)"/>
</clipPath>
<clipPath id="clip1_1_21">
<rect width="1775" height="1372" fill="white" transform="translate(313 0.000108142)"/>
</clipPath>
</defs>
</svg>
